<mxfile host="app.diagrams.net" modified="2021-02-25T10:30:37.457Z" agent="5.0 (Macintosh; Intel Mac OS X 10_15_7) AppleWebKit/537.36 (KHTML, like Gecko) Chrome/88.0.4324.96 Safari/537.36" etag="hqR-l7BjOdS2np9llTBr" version="14.4.3" type="github">
  <diagram id="RxaWVT3wT1uw_wrWMZzK" name="Page-1">
    <mxGraphModel dx="1188" dy="595" grid="1" gridSize="10" guides="1" tooltips="1" connect="1" arrows="1" fold="1" page="1" pageScale="1" pageWidth="827" pageHeight="1169" math="0" shadow="0">
      <root>
        <mxCell id="0" />
        <mxCell id="1" parent="0" />
        <mxCell id="Ae0Jvdu-vHirf8OoVpVT-1" value="行列初始化" style="rounded=0;whiteSpace=wrap;html=1;" vertex="1" parent="1">
          <mxGeometry x="140" y="180" width="120" height="30" as="geometry" />
        </mxCell>
        <mxCell id="Ae0Jvdu-vHirf8OoVpVT-2" value="表格大小" style="rounded=0;whiteSpace=wrap;html=1;" vertex="1" parent="1">
          <mxGeometry x="140" y="140" width="120" height="30" as="geometry" />
        </mxCell>
        <mxCell id="Ae0Jvdu-vHirf8OoVpVT-3" value="事件管理" style="rounded=0;whiteSpace=wrap;html=1;" vertex="1" parent="1">
          <mxGeometry x="280" y="180" width="120" height="30" as="geometry" />
        </mxCell>
        <mxCell id="Ae0Jvdu-vHirf8OoVpVT-4" value="排序" style="rounded=0;whiteSpace=wrap;html=1;" vertex="1" parent="1">
          <mxGeometry x="140" y="230" width="120" height="30" as="geometry" />
        </mxCell>
        <mxCell id="Ae0Jvdu-vHirf8OoVpVT-5" value="过滤" style="rounded=0;whiteSpace=wrap;html=1;" vertex="1" parent="1">
          <mxGeometry x="280" y="230" width="120" height="30" as="geometry" />
        </mxCell>
        <mxCell id="Ae0Jvdu-vHirf8OoVpVT-6" value="" style="endArrow=none;dashed=1;html=1;" edge="1" parent="1">
          <mxGeometry width="50" height="50" relative="1" as="geometry">
            <mxPoint x="140" y="220" as="sourcePoint" />
            <mxPoint x="400" y="220" as="targetPoint" />
          </mxGeometry>
        </mxCell>
        <mxCell id="Ae0Jvdu-vHirf8OoVpVT-8" value="分页" style="rounded=0;whiteSpace=wrap;html=1;" vertex="1" parent="1">
          <mxGeometry x="140" y="270" width="120" height="30" as="geometry" />
        </mxCell>
        <mxCell id="Ae0Jvdu-vHirf8OoVpVT-9" value="选择" style="rounded=0;whiteSpace=wrap;html=1;" vertex="1" parent="1">
          <mxGeometry x="280" y="270" width="120" height="30" as="geometry" />
        </mxCell>
        <mxCell id="Ae0Jvdu-vHirf8OoVpVT-12" value="属性整理" style="rounded=0;whiteSpace=wrap;html=1;" vertex="1" parent="1">
          <mxGeometry x="280" y="140" width="120" height="30" as="geometry" />
        </mxCell>
        <mxCell id="Ae0Jvdu-vHirf8OoVpVT-16" value="" style="endArrow=none;html=1;" edge="1" parent="1">
          <mxGeometry width="50" height="50" relative="1" as="geometry">
            <mxPoint x="40" y="310" as="sourcePoint" />
            <mxPoint x="400" y="310" as="targetPoint" />
          </mxGeometry>
        </mxCell>
        <mxCell id="Ae0Jvdu-vHirf8OoVpVT-17" value="AntD/Table" style="text;html=1;strokeColor=none;fillColor=none;align=center;verticalAlign=middle;whiteSpace=wrap;rounded=0;" vertex="1" parent="1">
          <mxGeometry x="40" y="230" width="70" height="20" as="geometry" />
        </mxCell>
        <mxCell id="Ae0Jvdu-vHirf8OoVpVT-18" value="rc-table" style="text;html=1;strokeColor=none;fillColor=none;align=center;verticalAlign=middle;whiteSpace=wrap;rounded=0;" vertex="1" parent="1">
          <mxGeometry x="40" y="350" width="70" height="20" as="geometry" />
        </mxCell>
        <mxCell id="Ae0Jvdu-vHirf8OoVpVT-19" value="行展开" style="rounded=0;whiteSpace=wrap;html=1;" vertex="1" parent="1">
          <mxGeometry x="140" y="340" width="120" height="30" as="geometry" />
        </mxCell>
        <mxCell id="Ae0Jvdu-vHirf8OoVpVT-20" value="列固定" style="rounded=0;whiteSpace=wrap;html=1;" vertex="1" parent="1">
          <mxGeometry x="280" y="340" width="120" height="30" as="geometry" />
        </mxCell>
        <mxCell id="Ae0Jvdu-vHirf8OoVpVT-21" value="渲染样式" style="rounded=0;whiteSpace=wrap;html=1;" vertex="1" parent="1">
          <mxGeometry x="140" y="380" width="120" height="30" as="geometry" />
        </mxCell>
        <mxCell id="Ae0Jvdu-vHirf8OoVpVT-22" value="行列事件" style="rounded=0;whiteSpace=wrap;html=1;" vertex="1" parent="1">
          <mxGeometry x="280" y="380" width="120" height="30" as="geometry" />
        </mxCell>
        <mxCell id="Ae0Jvdu-vHirf8OoVpVT-25" value="data/column" style="text;html=1;strokeColor=none;fillColor=none;align=center;verticalAlign=middle;whiteSpace=wrap;rounded=0;" vertex="1" parent="1">
          <mxGeometry x="290" y="310" width="40" height="20" as="geometry" />
        </mxCell>
        <mxCell id="Ae0Jvdu-vHirf8OoVpVT-27" value="" style="endArrow=classic;html=1;" edge="1" parent="1">
          <mxGeometry width="50" height="50" relative="1" as="geometry">
            <mxPoint x="270" y="310" as="sourcePoint" />
            <mxPoint x="270" y="340" as="targetPoint" />
          </mxGeometry>
        </mxCell>
      </root>
    </mxGraphModel>
  </diagram>
</mxfile>
